<?xml version="1.0" encoding="UTF-8"?>
<svg id="Layer_1" data-name="Layer 1" xmlns="http://www.w3.org/2000/svg" xmlns:xlink="http://www.w3.org/1999/xlink" viewBox="0 0 320.21 63.81">
  <defs>
    <style>
      .cls-1 {
        fill: url(#Nueva_muestra_de_degradado_4-2);
      }

      .cls-1, .cls-2 {
        stroke-width: 0px;
      }

      .cls-2 {
        fill: url(#Nueva_muestra_de_degradado_4);
      }

      .cls-3 {
        fill: #a05aa4;
        font-family: Verdana-Bold, Verdana;
        font-size: 29.32px;
        font-weight: 700;
        letter-spacing: .15em;
      }
    </style>
    <linearGradient id="Nueva_muestra_de_degradado_4" data-name="Nueva muestra de degradado 4" x1="30.69" y1="-76.57" x2="33.78" y2="101.13" gradientUnits="userSpaceOnUse">
      <stop offset="0" stop-color="#ed95bf"/>
      <stop offset="1" stop-color="#4b5fab"/>
    </linearGradient>
    <linearGradient id="Nueva_muestra_de_degradado_4-2" data-name="Nueva muestra de degradado 4" x1="22.78" y1="-45.53" x2="25.87" y2="132.18" xlink:href="#Nueva_muestra_de_degradado_4"/>
  </defs>
  <text class="cls-3" transform="translate(83.64 46.92)"><tspan x="0" y="0">GATHERPAL</tspan></text>
  <g>
    <path class="cls-2" d="m63.49,42.38c-1.25-2.15-2.95-3.83-5.11-5.03-2.16-1.21-4.54-1.81-7.14-1.81-.73,0-1.43.06-2.12.15.74-1.86,1.25-3.81,1.53-5.84v-6.45h-27.75v6.59h18.91c-.63,4.3-2.34,7.7-5.14,10.22-2.8,2.51-6.45,3.77-10.94,3.77-3.33,0-6.3-.75-8.91-2.25-2.61-1.5-4.65-3.63-6.12-6.41-1.47-2.78-2.21-5.98-2.21-9.6s.74-6.81,2.21-9.56c1.47-2.75,3.51-4.88,6.12-6.38,2.61-1.5,5.58-2.25,8.91-2.25,3.04,0,5.72.64,8.04,1.92,2.32,1.28,4.13,3.18,5.43,5.69h9.93c-1.88-4.83-4.92-8.56-9.09-11.19-4.18-2.63-8.95-3.95-14.31-3.95-4.68,0-9,1.1-12.93,3.3-3.94,2.2-7.05,5.25-9.35,9.17-2.29,3.91-3.44,8.33-3.44,13.26s1.15,9.35,3.44,13.26,5.4,6.97,9.31,9.17c3.91,2.2,8.23,3.3,12.97,3.3,4.15,0,7.93-.88,11.37-2.62-.01.28-.05.55-.05.84,0,2.7.64,5.13,1.91,7.29,1.27,2.16,2.99,3.85,5.15,5.05,2.16,1.21,4.54,1.81,7.14,1.81s4.97-.6,7.12-1.81c2.15-1.21,3.85-2.89,5.11-5.05,1.26-2.16,1.89-4.59,1.89-7.29s-.62-5.12-1.87-7.27Zm-6.96,13.09c-1.32,1.47-3.09,2.2-5.29,2.2s-4-.73-5.33-2.18c-1.32-1.45-1.99-3.4-1.99-5.84s.66-4.42,1.99-5.86c1.32-1.44,3.1-2.16,5.33-2.16s3.96.73,5.29,2.18,1.99,3.4,1.99,5.84-.66,4.35-1.99,5.82Z"/>
    <rect class="cls-1" x="16.54" y="56.2" width="16.11" height="5.37"/>
  </g>
</svg>