<?xml version="1.0" encoding="UTF-8"?>
<svg id="Layer_1" data-name="Layer 1" xmlns="http://www.w3.org/2000/svg" xmlns:xlink="http://www.w3.org/1999/xlink" viewBox="0 0 100.17 97.8">
  <defs>
    <style>
      .cls-1 {
        fill: url(#Nueva_muestra_de_degradado_4-2);
      }

      .cls-1, .cls-2 {
        stroke-width: 0px;
      }

      .cls-2 {
        fill: url(#Nueva_muestra_de_degradado_4);
      }
    </style>
    <linearGradient id="Nueva_muestra_de_degradado_4" data-name="Nueva muestra de degradado 4" x1="47.04" y1="-117.36" x2="51.77" y2="155" gradientUnits="userSpaceOnUse">
      <stop offset="0" stop-color="#ed95bf"/>
      <stop offset="1" stop-color="#4b5fab"/>
    </linearGradient>
    <linearGradient id="Nueva_muestra_de_degradado_4-2" data-name="Nueva muestra de degradado 4" x1="34.91" y1="-69.78" x2="39.65" y2="202.58" xlink:href="#Nueva_muestra_de_degradado_4"/>
  </defs>
  <path class="cls-2" d="m97.3,64.95c-1.91-3.29-4.52-5.87-7.84-7.71-3.32-1.85-6.96-2.77-10.94-2.77-1.11,0-2.19.09-3.25.23,1.13-2.85,1.92-5.84,2.34-8.95v-9.88h-42.53v10.1h28.98c-.96,6.59-3.59,11.81-7.88,15.66-4.29,3.85-9.88,5.77-16.77,5.77-5.11,0-9.66-1.15-13.66-3.44-4-2.29-7.13-5.57-9.38-9.83-2.26-4.26-3.39-9.16-3.39-14.71s1.13-10.44,3.39-14.66c2.26-4.22,5.39-7.48,9.38-9.77,4-2.29,8.55-3.44,13.66-3.44,4.67,0,8.77.98,12.33,2.94,3.55,1.96,6.33,4.87,8.33,8.72h15.21c-2.89-7.4-7.53-13.12-13.94-17.16C54.95,2.02,47.64,0,39.42,0c-7.18,0-13.79,1.69-19.82,5.05-6.03,3.37-10.81,8.05-14.32,14.05C1.76,25.1,0,31.87,0,39.42s1.76,14.33,5.27,20.32,8.27,10.68,14.27,14.05c6,3.37,12.62,5.05,19.88,5.05,6.36,0,12.16-1.35,17.43-4.02-.02.43-.08.84-.08,1.28,0,4.14.97,7.86,2.92,11.18,1.95,3.31,4.58,5.9,7.89,7.74,3.32,1.85,6.96,2.77,10.94,2.77s7.61-.92,10.91-2.77c3.29-1.85,5.91-4.43,7.84-7.74,1.93-3.32,2.89-7.04,2.89-11.18s-.96-7.85-2.86-11.15Zm-10.67,20.07c-2.03,2.25-4.73,3.38-8.1,3.38s-6.14-1.11-8.17-3.35c-2.03-2.23-3.04-5.21-3.04-8.95s1.01-6.77,3.04-8.98c2.03-2.21,4.75-3.31,8.17-3.31s6.08,1.11,8.1,3.34c2.03,2.23,3.04,5.21,3.04,8.95s-1.01,6.67-3.04,8.92Z"/>
  <rect class="cls-1" x="25.35" y="86.13" width="24.69" height="8.23"/>
</svg>