<?xml version="1.0" encoding="UTF-8"?>
<svg id="Layer_1" data-name="Layer 1" xmlns="http://www.w3.org/2000/svg" xmlns:xlink="http://www.w3.org/1999/xlink" viewBox="0 0 473.42 100.28">
  <defs>
    <style>
      .cls-1 {
        fill: url(#Nueva_muestra_de_degradado_4-2);
      }

      .cls-1, .cls-2 {
        stroke-width: 0px;
      }

      .cls-2 {
        fill: url(#Nueva_muestra_de_degradado_4);
      }

      .cls-3 {
        fill: #a05aa4;
        font-family: Verdana-Bold, Verdana;
        font-size: 45.24px;
        font-weight: 700;
        letter-spacing: .15em;
      }
    </style>
    <linearGradient id="Nueva_muestra_de_degradado_4" data-name="Nueva muestra de degradado 4" x1="48.23" y1="-120.34" x2="53.09" y2="158.94" gradientUnits="userSpaceOnUse">
      <stop offset="0" stop-color="#ed95bf"/>
      <stop offset="1" stop-color="#4b5fab"/>
    </linearGradient>
    <linearGradient id="Nueva_muestra_de_degradado_4-2" data-name="Nueva muestra de degradado 4" x1="35.8" y1="-71.55" x2="40.66" y2="207.72" xlink:href="#Nueva_muestra_de_degradado_4"/>
  </defs>
  <text class="cls-3" transform="translate(108.43 59.53)"><tspan x="0" y="0">GATHERPAL</tspan></text>
  <g>
    <path class="cls-2" d="m99.77,66.6c-1.96-3.38-4.64-6.01-8.03-7.91-3.4-1.89-7.14-2.84-11.22-2.84-1.14,0-2.25.09-3.33.24,1.16-2.93,1.97-5.98,2.4-9.18v-10.13h-43.61v10.36h29.72c-.99,6.76-3.68,12.11-8.08,16.05-4.4,3.95-10.13,5.92-17.19,5.92-5.24,0-9.91-1.18-14-3.53-4.1-2.35-7.31-5.71-9.62-10.08-2.32-4.36-3.47-9.39-3.47-15.09s1.16-10.7,3.47-15.03c2.32-4.33,5.52-7.67,9.62-10.02,4.1-2.35,8.77-3.53,14-3.53,4.78,0,9,1.01,12.64,3.02,3.64,2.01,6.49,4.99,8.54,8.94h15.6c-2.96-7.59-7.73-13.45-14.29-17.59C56.34,2.07,48.85,0,40.42,0c-7.36,0-14.14,1.73-20.33,5.18-6.19,3.45-11.08,8.25-14.69,14.4C1.8,25.73,0,32.68,0,40.42s1.8,14.69,5.41,20.84c3.61,6.15,8.48,10.95,14.63,14.4,6.15,3.45,12.94,5.18,20.38,5.18,6.52,0,12.47-1.39,17.87-4.12-.02.44-.08.87-.08,1.32,0,4.24,1,8.06,3,11.46,2,3.4,4.7,6.05,8.09,7.94,3.4,1.9,7.14,2.84,11.22,2.84s7.81-.95,11.18-2.84c3.38-1.89,6.06-4.54,8.03-7.94,1.98-3.4,2.97-7.22,2.97-11.46s-.98-8.05-2.94-11.43Zm-10.94,20.58c-2.08,2.31-4.85,3.46-8.31,3.46s-6.29-1.14-8.37-3.43c-2.08-2.29-3.12-5.34-3.12-9.18s1.04-6.94,3.12-9.21c2.08-2.27,4.87-3.4,8.37-3.4s6.23,1.14,8.31,3.43c2.08,2.29,3.12,5.35,3.12,9.18s-1.04,6.84-3.12,9.15Z"/>
    <rect class="cls-1" x="26" y="88.32" width="25.31" height="8.44"/>
  </g>
</svg>