<?xml version="1.0" encoding="UTF-8"?>
<svg id="Layer_1" data-name="Layer 1" xmlns="http://www.w3.org/2000/svg" xmlns:xlink="http://www.w3.org/1999/xlink" viewBox="0 0 370.68 78.52">
  <defs>
    <style>
      .cls-1 {
        fill: url(#Nueva_muestra_de_degradado_4-2);
      }

      .cls-1, .cls-2 {
        stroke-width: 0px;
      }

      .cls-3 {
        fill: #a05aa4;
        font-family: Verdana-Bold, Verdana;
        font-size: 35.42px;
        font-weight: 700;
        letter-spacing: .15em;
      }

      .cls-2 {
        fill: url(#Nueva_muestra_de_degradado_4);
      }
    </style>
    <linearGradient id="Nueva_muestra_de_degradado_4" data-name="Nueva muestra de degradado 4" x1="37.76" y1="-94.22" x2="41.57" y2="124.45" gradientUnits="userSpaceOnUse">
      <stop offset="0" stop-color="#ed95bf"/>
      <stop offset="1" stop-color="#4b5fab"/>
    </linearGradient>
    <linearGradient id="Nueva_muestra_de_degradado_4-2" data-name="Nueva muestra de degradado 4" x1="28.03" y1="-56.02" x2="31.83" y2="162.64" xlink:href="#Nueva_muestra_de_degradado_4"/>
  </defs>
  <text class="cls-3" transform="translate(84.9 46.61)"><tspan x="0" y="0">GATHERPAL</tspan></text>
  <g>
    <path class="cls-2" d="m78.12,52.15c-1.53-2.64-3.63-4.71-6.29-6.19-2.66-1.48-5.59-2.23-8.78-2.23-.89,0-1.76.07-2.61.19.91-2.29,1.54-4.69,1.88-7.19v-7.93H28.17v8.11h23.27c-.77,5.29-2.88,9.48-6.33,12.57-3.45,3.09-7.93,4.64-13.46,4.64-4.1,0-7.76-.92-10.97-2.76-3.21-1.84-5.72-4.47-7.53-7.89-1.81-3.42-2.72-7.36-2.72-11.81s.9-8.38,2.72-11.77c1.81-3.39,4.32-6,7.53-7.85,3.21-1.84,6.87-2.76,10.97-2.76,3.75,0,7.04.79,9.9,2.36,2.85,1.58,5.08,3.91,6.69,7h12.21c-2.32-5.94-6.05-10.53-11.19-13.77C44.12,1.62,38.25,0,31.65,0c-5.76,0-11.07,1.35-15.91,4.06-4.84,2.71-8.68,6.46-11.5,11.28C1.41,20.15,0,25.59,0,31.65s1.41,11.5,4.23,16.32c2.82,4.81,6.64,8.57,11.46,11.28,4.81,2.71,10.13,4.06,15.96,4.06,5.1,0,9.76-1.09,14-3.23-.02.34-.06.68-.06,1.03,0,3.32.78,6.31,2.35,8.98,1.56,2.66,3.68,4.73,6.34,6.22,2.66,1.48,5.59,2.23,8.78,2.23s6.11-.74,8.76-2.23c2.65-1.48,4.74-3.56,6.29-6.22,1.55-2.66,2.32-5.65,2.32-8.98s-.77-6.31-2.3-8.95Zm-8.57,16.11c-1.63,1.81-3.8,2.71-6.51,2.71s-4.93-.9-6.56-2.69c-1.63-1.79-2.44-4.19-2.44-7.19s.81-5.44,2.44-7.21c1.63-1.77,3.81-2.66,6.56-2.66s4.88.89,6.51,2.68c1.63,1.79,2.44,4.19,2.44,7.19s-.81,5.36-2.44,7.16Z"/>
    <rect class="cls-1" x="20.35" y="69.15" width="19.82" height="6.61"/>
  </g>
</svg>