<?xml version="1.0" encoding="UTF-8"?>
<svg id="Layer_1" data-name="Layer 1" xmlns="http://www.w3.org/2000/svg" xmlns:xlink="http://www.w3.org/1999/xlink" viewBox="0 0 245.5 63.8">
  <defs>
    <style>
      .cls-1 {
        fill: url(#Nueva_muestra_de_degradado_4-2);
      }

      .cls-1, .cls-2 {
        stroke-width: 0px;
      }

      .cls-3 {
        fill: #a05aa4;
        font-family: Verdana-Bold, Verdana;
        font-size: 22px;
        font-weight: 700;
        letter-spacing: .2em;
      }

      .cls-2 {
        fill: url(#Nueva_muestra_de_degradado_4);
      }
    </style>
    <linearGradient id="Nueva_muestra_de_degradado_4" data-name="Nueva muestra de degradado 4" x1="30.7" y1="-76.6" x2="33.8" y2="101.1" gradientUnits="userSpaceOnUse">
      <stop offset="0" stop-color="#ed95bf"/>
      <stop offset="1" stop-color="#4b5fab"/>
    </linearGradient>
    <linearGradient id="Nueva_muestra_de_degradado_4-2" data-name="Nueva muestra de degradado 4" x1="22.8" y1="-45.5" x2="25.9" y2="132.2" xlink:href="#Nueva_muestra_de_degradado_4"/>
  </defs>
  <text class="cls-3" transform="translate(67.9 40.6)"><tspan x="0" y="0">GATHERPAL</tspan></text>
  <g>
    <path class="cls-2" d="m63.5,42.4c-1.2-2.1-2.9-3.8-5.1-5-2.2-1.2-4.5-1.8-7.1-1.8s-1.4,0-2.1.2c.7-1.9,1.3-3.8,1.5-5.8v-6.4h-27.7v6.6h18.9c-.6,4.3-2.3,7.7-5.1,10.2-2.8,2.5-6.4,3.8-10.9,3.8s-6.3-.7-8.9-2.2c-2.6-1.5-4.6-3.6-6.1-6.4-1.5-2.8-2.2-6-2.2-9.6s.7-6.8,2.2-9.6c1.5-2.8,3.5-4.9,6.1-6.4,2.6-1.5,5.6-2.2,8.9-2.2s5.7.6,8,1.9c2.3,1.3,4.1,3.2,5.4,5.7h9.9c-1.9-4.8-4.9-8.6-9.1-11.2-4.2-2.6-8.9-3.9-14.3-3.9s-9,1.1-12.9,3.3c-3.9,2.2-7.1,5.3-9.3,9.2-2.3,3.9-3.4,8.3-3.4,13.3s1.1,9.3,3.4,13.3,5.4,7,9.3,9.2c3.9,2.2,8.2,3.3,13,3.3s7.9-.9,11.4-2.6c0,.3,0,.6,0,.8,0,2.7.6,5.1,1.9,7.3,1.3,2.2,3,3.8,5.2,5.1,2.2,1.2,4.5,1.8,7.1,1.8s5-.6,7.1-1.8c2.1-1.2,3.9-2.9,5.1-5.1,1.3-2.2,1.9-4.6,1.9-7.3s-.6-5.1-1.9-7.3Zm-7,13.1c-1.3,1.5-3.1,2.2-5.3,2.2s-4-.7-5.3-2.2c-1.3-1.5-2-3.4-2-5.8s.7-4.4,2-5.9c1.3-1.4,3.1-2.2,5.3-2.2s4,.7,5.3,2.2,2,3.4,2,5.8-.7,4.4-2,5.8Z"/>
    <rect class="cls-1" x="16.5" y="56.2" width="16.1" height="5.4"/>
  </g>
</svg>